<svg width="24" height="24" viewBox="0 0 24 24" fill="none" xmlns="http://www.w3.org/2000/svg">
<path d="M0.795411 24.0002C0.591575 24.0002 0.388171 23.9222 0.233032 23.7671C-0.0776772 23.4564 -0.0776772 22.9526 0.233032 22.6423L22.6416 0.233355C22.9523 -0.077785 23.456 -0.077785 23.7663 0.233355C24.077 0.544064 24.077 1.04783 23.7663 1.35811L1.35779 23.7671C1.20265 23.9226 0.998815 24.0002 0.795411 24.0002Z" fill="#374957"/>
<path d="M11.9999 12.7957C11.7961 12.7957 11.5927 12.7177 11.4375 12.5626L0.233032 1.35811C-0.0776772 1.0474 -0.0776772 0.543633 0.233032 0.233355C0.543741 -0.077785 1.04751 -0.077785 1.35779 0.233355L12.5623 11.4378C12.8734 11.7485 12.8734 12.2523 12.5623 12.5626C12.4071 12.7182 12.2037 12.7957 11.9999 12.7957Z" fill="#374957"/>
<path d="M23.2039 24.0002C23.0001 24.0002 22.7971 23.9222 22.6411 23.7671L12.2608 13.284C11.95 12.9733 12.1889 12.8103 12.5 12.5C12.8107 12.1893 12.6893 11.6893 13 12L23.7663 22.6427C24.077 22.9535 24.077 23.4572 23.7663 23.7675C23.6112 23.9226 23.4073 24.0002 23.2039 24.0002Z" fill="#374957"/>
</svg>
